<svg width="41" height="46" viewBox="0 0 41 46" fill="none" xmlns="http://www.w3.org/2000/svg">
<rect x="0.709182" width="27.9066" height="27.9066" transform="matrix(0.709182 -0.705026 0.709182 0.705026 0.206243 20.8799)" stroke="#555"/>
<rect x="0.709182" width="27.9066" height="27.9066" transform="matrix(0.709182 -0.705026 0.709182 0.705026 0.206243 23.5)" stroke="#555"/>
<rect x="0.709182" width="27.9066" height="27.9066" transform="matrix(0.709182 -0.705026 0.709182 0.705026 0.206243 26.1201)" stroke="#555"/>
<path d="M14.8311 27.9495H13.6362V19.5686H10.6757V18.5259H17.7784V19.5686H14.8311V27.9495Z" fill="#000"/>
<path d="M23.3898 27.9495L20.2699 19.6873H20.2168C20.2433 19.9601 20.2654 20.3297 20.2831 20.796C20.3008 21.2535 20.3097 21.7331 20.3097 22.2346V27.9495H19.2078V18.5259H20.9735L23.8943 26.2469H23.9474L26.9212 18.5259H28.6737V27.9495H27.4921V22.1554C27.4921 21.6979 27.501 21.2447 27.5187 20.796C27.5452 20.3473 27.5673 19.9821 27.585 19.7005H27.5319L24.3722 27.9495H23.3898Z" fill="#82C3CC"/>
</svg>
